# xmcd CD database file
#
# Track frame offsets:
#	150
#	15830
#	28540
#	38948
#	51910
#	63635
#	72537
#	86229
#	98607
#	111930
#	123780
#	136305
#	147427
#	157287
#	169872
#	180214
#	190862
#	203309
#	215049
#	227139
#	240995
#
# Disc length: 3375 seconds
#
# Revision: 0
# Processed by: cddbd v1.5.2PL0 Copyright (c) Steve Scherf et al.
# Submitted via: CDex 1.50beta10
#
DISCID=240d2d15
DTITLE=Sonny Boy Williamson - From The Bottom Of The Blues
DYEAR=2012
DGENRE=Blues
TTITLE0=Nine Below Zero
TTITLE1=One Way Out
TTITLE2=That's All I Want
TTITLE3=Too Old To Think
TTITLE4=Down Child
TTITLE5=Chekin' Up On My Baby
TTITLE6=To Young To Die
TTITLE7=Trust Me Baby
TTITLE8=Sad To Be Alone
TTITLE9=Peach Tree
TTITLE10=The Hunt
TTITLE11=Stop Right Now
TTITLE12=She's My Baby
TTITLE13=The Goat
TTITLE14=Somebody Help Me
TTITLE15=Fattening Frogs For Snakes
TTITLE16=Dissatisfied
TTITLE17=Don't Start Me Talking
TTITLE18=From The Bottom
TTITLE19=Eyesight To The Blind
TTITLE20=Pontiac Blues
EXTD=YEAR: 2012
EXTT0=
EXTT1=
EXTT2=
EXTT3=
EXTT4=
EXTT5=
EXTT6=
EXTT7=
EXTT8=
EXTT9=
EXTT10=
EXTT11=
EXTT12=
EXTT13=
EXTT14=
EXTT15=
EXTT16=
EXTT17=
EXTT18=
EXTT19=
EXTT20=
PLAYORDER=
